<svg width="24" height="25" viewBox="0 0 24 25" fill="none" xmlns="http://www.w3.org/2000/svg">
    <path d="M21.93 7.26001L18.56 20.79C18.32 21.8 17.42 22.5 16.38 22.5H3.24001C1.73001 22.5 0.650023 21.0199 1.10002 19.5699L5.31001 6.05005C5.60001 5.11005 6.47003 4.45996 7.45003 4.45996H19.75C20.7 4.45996 21.49 5.03997 21.82 5.83997C22.01 6.26997 22.05 6.76001 21.93 7.26001Z" stroke="#171717" stroke-width="1.5"/>
    <path d="M16 22.5H20.78C22.07 22.5 23.08 21.41 22.99 20.12L22 6.5" stroke="#171717" stroke-width="1.5" stroke-linecap="round" stroke-linejoin="round"/>
    <path d="M9.67993 6.88049L10.7199 2.56055" stroke="#171717" stroke-width="1.5" stroke-linecap="round" stroke-linejoin="round"/>
    <path d="M16.38 6.88977L17.32 2.5498" stroke="#171717" stroke-width="1.5" stroke-linecap="round" stroke-linejoin="round"/>
    <path d="M7.69995 12.5H15.7" stroke="#171717" stroke-width="1.5" stroke-linecap="round" stroke-linejoin="round"/>
    <path d="M6.69995 16.5H14.7" stroke="#171717" stroke-width="1.5" stroke-linecap="round" stroke-linejoin="round"/>
</svg>