<svg width="19" height="20" viewBox="0 0 19 20" fill="none" xmlns="http://www.w3.org/2000/svg">
<path d="M9.46783 5.09922e-05C12.465 5.09922e-05 14.9097 2.25672 15.03 5.08267L15.0347 5.30115L15.0354 6.87724C16.9006 7.49409 18.2395 9.18236 18.2395 11.1689V15.4579C18.2395 17.9668 16.1041 19.9999 13.4697 19.9999H5.44555C2.81123 19.9999 0.675781 17.9668 0.675781 15.4579V11.1689C0.675781 9.18199 2.01515 7.49345 3.88096 6.8769L3.88104 5.27787C3.8945 2.34987 6.39704 -0.0126526 9.46783 5.09922e-05ZM13.4697 8.12695H5.44555C3.68113 8.12695 2.251 9.48854 2.251 11.1689V15.4579C2.251 17.1384 3.68113 18.4999 5.44555 18.4999H13.4697C15.2341 18.4999 16.6643 17.1384 16.6643 15.4579V11.1689C16.6643 9.48854 15.2341 8.12695 13.4697 8.12695ZM9.45785 11.453C9.85659 11.453 10.1861 11.7352 10.2383 12.1013L10.2455 12.203V14.424C10.2455 14.8383 9.89283 15.174 9.45785 15.174C9.05911 15.174 8.72958 14.8919 8.67743 14.5258L8.67024 14.424V12.203C8.67024 11.7888 9.02286 11.453 9.45785 11.453ZM9.46439 1.5001C7.32904 1.49123 5.57844 3.08061 5.46235 5.08583L5.45626 5.28115L5.45605 6.626H13.4592L13.4594 5.30115C13.4594 3.20235 11.6719 1.5001 9.46439 1.5001Z" fill="#A4A4A4"/>
</svg>