<svg width="24" height="25" viewBox="0 0 24 25" fill="none" xmlns="http://www.w3.org/2000/svg">
    <path d="M18 7.66C17.94 7.65 17.87 7.65 17.81 7.66C16.43 7.61 15.33 6.48 15.33 5.08C15.33 3.65 16.48 2.5 17.91 2.5C19.34 2.5 20.49 3.66 20.49 5.08C20.48 6.48 19.38 7.61 18 7.66Z" stroke="#171717" stroke-width="1.5" stroke-linecap="round" stroke-linejoin="round"/>
    <path d="M16.9699 14.9402C18.3399 15.1702 19.8499 14.9302 20.9099 14.2202C22.3199 13.2802 22.3199 11.7402 20.9099 10.8002C19.8399 10.0902 18.3099 9.85016 16.9399 10.0902" stroke="#171717" stroke-width="1.5" stroke-linecap="round" stroke-linejoin="round"/>
    <path d="M5.96998 7.66C6.02998 7.65 6.09998 7.65 6.15998 7.66C7.53998 7.61 8.63998 6.48 8.63998 5.08C8.63998 3.65 7.48998 2.5 6.05998 2.5C4.62998 2.5 3.47998 3.66 3.47998 5.08C3.48998 6.48 4.58998 7.61 5.96998 7.66Z" stroke="#171717" stroke-width="1.5" stroke-linecap="round" stroke-linejoin="round"/>
    <path d="M6.99994 14.9402C5.62994 15.1702 4.11994 14.9302 3.05994 14.2202C1.64994 13.2802 1.64994 11.7402 3.05994 10.8002C4.12994 10.0902 5.65994 9.85016 7.02994 10.0902" stroke="#171717" stroke-width="1.5" stroke-linecap="round" stroke-linejoin="round"/>
    <path d="M12 15.1297C11.94 15.1197 11.87 15.1197 11.81 15.1297C10.43 15.0797 9.32996 13.9497 9.32996 12.5497C9.32996 11.1197 10.48 9.96973 11.91 9.96973C13.34 9.96973 14.49 11.1297 14.49 12.5497C14.48 13.9497 13.38 15.0897 12 15.1297Z" stroke="#171717" stroke-width="1.5" stroke-linecap="round" stroke-linejoin="round"/>
    <path d="M9.08997 18.2794C7.67997 19.2194 7.67997 20.7594 9.08997 21.6994C10.69 22.7694 13.31 22.7694 14.91 21.6994C16.32 20.7594 16.32 19.2194 14.91 18.2794C13.32 17.2194 10.69 17.2194 9.08997 18.2794Z" stroke="#171717" stroke-width="1.5" stroke-linecap="round" stroke-linejoin="round"/>
</svg>