<svg width="711" height="719" viewBox="0 0 711 719" fill="none" xmlns="http://www.w3.org/2000/svg">
<mask id="path-1-outside-1_106_10767" maskUnits="userSpaceOnUse" x="349.464" y="91.2295" width="232.698" height="244.045" fill="black">
<rect fill="white" x="349.464" y="91.2295" width="232.698" height="244.045"/>
<path d="M420.74 286.822C408.615 279.822 399.745 270.851 394.13 259.911C388.597 248.827 386.461 236.527 387.72 223.013C389.063 209.354 393.984 195.164 402.484 180.441C411.4 164.997 421.76 152.888 433.562 144.113C445.508 135.422 457.975 130.495 470.962 129.333C483.95 128.172 496.722 131.216 509.28 138.466C521.693 145.632 530.726 154.986 536.381 166.525C542.118 177.921 544.346 190.562 543.065 204.448C541.928 218.418 537.151 232.692 528.734 247.27C519.651 263.003 509.147 275.029 497.223 283.348C485.444 291.751 472.999 296.305 459.89 297.012C446.78 297.718 433.73 294.322 420.74 286.822ZM439.054 261.6C448.003 266.766 457.481 266.85 467.488 261.85C477.579 256.707 487.416 245.835 496.999 229.236C505.999 213.648 509.995 200.559 508.988 189.97C507.981 179.381 503.003 171.504 494.054 166.337C485.25 161.254 475.938 160.881 466.12 165.22C456.446 169.643 447.109 179.648 438.109 195.236C428.526 211.835 424.03 225.79 424.62 237.1C425.438 248.35 430.25 256.516 439.054 261.6Z"/>
</mask>
<path d="M420.74 286.822C408.615 279.822 399.745 270.851 394.13 259.911C388.597 248.827 386.461 236.527 387.72 223.013C389.063 209.354 393.984 195.164 402.484 180.441C411.4 164.997 421.76 152.888 433.562 144.113C445.508 135.422 457.975 130.495 470.962 129.333C483.95 128.172 496.722 131.216 509.28 138.466C521.693 145.632 530.726 154.986 536.381 166.525C542.118 177.921 544.346 190.562 543.065 204.448C541.928 218.418 537.151 232.692 528.734 247.27C519.651 263.003 509.147 275.029 497.223 283.348C485.444 291.751 472.999 296.305 459.89 297.012C446.78 297.718 433.73 294.322 420.74 286.822ZM439.054 261.6C448.003 266.766 457.481 266.85 467.488 261.85C477.579 256.707 487.416 245.835 496.999 229.236C505.999 213.648 509.995 200.559 508.988 189.97C507.981 179.381 503.003 171.504 494.054 166.337C485.25 161.254 475.938 160.881 466.12 165.22C456.446 169.643 447.109 179.648 438.109 195.236C428.526 211.835 424.03 225.79 424.62 237.1C425.438 248.35 430.25 256.516 439.054 261.6Z" fill="#4E5CFF"/>
<path d="M394.13 259.911L386.972 263.484L386.992 263.524L387.012 263.565L394.13 259.911ZM387.72 223.013L379.758 222.231L379.756 222.251L379.755 222.271L387.72 223.013ZM433.562 144.113L428.855 137.644L428.822 137.669L428.788 137.693L433.562 144.113ZM470.962 129.333L470.249 121.365L470.249 121.365L470.962 129.333ZM536.381 166.525L529.197 170.045L529.216 170.084L529.235 170.123L536.381 166.525ZM543.065 204.448L535.099 203.713L535.095 203.756L535.091 203.799L543.065 204.448ZM497.223 283.348L492.646 276.787L492.611 276.811L492.577 276.835L497.223 283.348ZM459.89 297.012L460.32 305L459.89 297.012ZM467.488 261.85L471.064 269.007L471.093 268.992L471.122 268.978L467.488 261.85ZM508.988 189.97L516.952 189.213L508.988 189.97ZM466.12 165.22L462.886 157.903L462.84 157.923L462.794 157.944L466.12 165.22ZM424.62 237.1L416.631 237.518L416.635 237.599L416.641 237.681L424.62 237.1ZM424.74 279.893C413.758 273.553 406.066 265.647 401.247 256.258L387.012 263.565C393.424 276.056 403.472 286.09 416.74 293.75L424.74 279.893ZM401.288 256.339C396.485 246.715 394.551 235.931 395.686 223.755L379.755 222.271C378.371 237.124 380.71 250.938 386.972 263.484L401.288 256.339ZM395.682 223.796C396.889 211.508 401.349 198.406 409.412 184.441L395.556 176.441C386.618 191.921 381.236 207.201 379.758 222.231L395.682 223.796ZM409.412 184.441C417.896 169.746 427.574 158.534 438.335 150.533L428.788 137.693C415.945 147.242 404.905 160.249 395.556 176.441L409.412 184.441ZM438.268 150.582C449.202 142.627 460.314 138.318 471.675 137.302L470.249 121.365C455.635 122.673 441.813 128.217 428.855 137.644L438.268 150.582ZM471.675 137.302C482.84 136.303 493.982 138.871 505.28 145.394L513.28 131.537C499.463 123.56 485.059 120.04 470.249 121.365L471.675 137.302ZM505.28 145.394C516.481 151.861 524.321 160.095 529.197 170.045L543.565 163.005C537.132 149.877 526.904 139.404 513.28 131.537L505.28 145.394ZM529.235 170.123C534.237 180.056 536.256 191.175 535.099 203.713L551.031 205.183C552.437 189.948 550 175.786 543.526 162.928L529.235 170.123ZM535.091 203.799C534.067 216.375 529.748 229.514 521.806 243.27L535.662 251.27C544.554 235.869 549.788 220.461 551.038 205.097L535.091 203.799ZM521.806 243.27C513.166 258.234 503.399 269.285 492.646 276.787L501.801 289.909C514.895 280.773 526.135 267.772 535.662 251.27L521.806 243.27ZM492.577 276.835C481.904 284.449 470.899 288.407 459.459 289.023L460.32 305C475.099 304.204 488.984 299.052 501.869 289.861L492.577 276.835ZM459.459 289.023C448.11 289.635 436.584 286.732 424.74 279.893L416.74 293.75C430.876 301.912 445.45 305.802 460.32 305L459.459 289.023ZM435.054 268.528C446.549 275.164 458.889 275.09 471.064 269.007L463.913 254.694C456.073 258.61 449.457 258.368 443.054 254.672L435.054 268.528ZM471.122 268.978C483.245 262.797 494.047 250.349 503.927 233.236L490.071 225.236C480.784 241.322 471.912 250.616 463.855 254.723L471.122 268.978ZM503.927 233.236C513.241 217.104 518.193 202.252 516.952 189.213L501.024 190.728C501.798 198.866 498.757 210.192 490.071 225.236L503.927 233.236ZM516.952 189.213C515.709 176.137 509.322 165.914 498.054 159.409L490.054 173.265C496.684 177.093 500.254 182.626 501.024 190.728L516.952 189.213ZM498.054 159.409C486.898 152.968 474.887 152.6 462.886 157.903L469.354 172.538C476.99 169.163 483.601 169.54 490.054 173.265L498.054 159.409ZM462.794 157.944C450.882 163.39 440.495 175.104 431.181 191.236L445.037 199.236C453.723 184.192 462.011 175.895 469.446 172.496L462.794 157.944ZM431.181 191.236C421.301 208.349 415.921 223.928 416.631 237.518L432.609 236.683C432.138 227.652 435.751 215.322 445.037 199.236L431.181 191.236ZM416.641 237.681C417.627 251.235 423.673 261.957 435.054 268.528L443.054 254.672C436.826 251.076 433.249 245.465 432.599 236.52L416.641 237.681Z" fill="black" mask="url(#path-1-outside-1_106_10767)"/>
<path d="M533.218 403.631C528.166 400.714 525.299 396.846 524.618 392.026C524.081 387.29 525.604 381.818 529.187 375.612C531.687 371.282 534.787 366.913 538.486 362.505C542.33 358.181 546.493 354.137 550.975 350.374L550.524 354.155C544.844 352.993 538.248 350.917 530.737 347.928C523.225 344.938 516.005 341.443 509.077 337.443C502.438 333.61 498.155 329.694 496.23 325.695C494.532 321.636 494.85 317.586 497.183 313.544C500.766 307.338 506.16 300.829 513.364 294.019C520.567 287.208 528.546 280.556 537.298 274.062C546.196 267.652 554.707 262.077 562.831 257.338C575.599 249.891 587.527 245.231 598.616 243.357C609.788 241.34 620.21 243.123 629.88 248.706C639.262 254.123 644.568 260.265 645.799 267.134C647.174 274.086 645.319 281.965 640.236 290.769C635.319 299.285 628.817 308.714 620.729 319.056C612.725 329.253 603.874 339.25 594.176 349.047L592.737 345.041C595.174 345.486 597.631 346.23 600.107 347.275C602.666 348.175 604.884 349.167 606.76 350.251C618.596 357.084 621.764 365.264 616.264 374.79C613.431 379.698 609.388 382.367 604.135 382.798C599.026 383.313 593.513 381.862 587.595 378.445C584.997 376.945 582.555 375.343 580.268 373.637C578.208 371.871 576.479 370.199 575.081 368.622L577.438 368.539C576.143 371.448 574.432 375.079 572.304 379.432C570.259 383.64 568.153 387.62 565.987 391.373C561.57 399.023 556.463 403.869 550.665 405.91C545.096 407.89 539.28 407.131 533.218 403.631ZM545.529 319.806C550.148 322.473 554.803 323.91 559.495 324.117C564.27 324.179 568.926 323.115 573.463 320.923C578.228 318.67 582.718 315.393 586.934 311.091C591.377 306.728 595.432 301.371 599.099 295.02C602.099 289.824 603.369 285.458 602.91 281.921C602.677 278.323 601.118 275.69 598.231 274.024C594.334 271.774 589.79 270.978 584.598 271.637C579.49 272.152 574.17 273.699 568.639 276.279C563.335 278.799 558.318 282.156 553.586 286.352C548.937 290.404 545.196 294.884 542.362 299.791C539.529 304.699 538.498 308.818 539.269 312.15C540.123 315.338 542.209 317.89 545.529 319.806Z" fill="black"/>
<path d="M281.835 422.126C306.48 398.48 353.161 405.89 373.42 412.551H375.502C380.914 418.796 391.904 431.285 392.57 431.285C393.236 431.285 384.799 434.893 380.498 436.697L358.434 431.285L321.799 436.697L261.436 456.679C257.967 455.014 257.19 445.772 281.835 422.126Z" fill="white"/>
<path fill-rule="evenodd" clip-rule="evenodd" d="M369.751 340.04C379.788 347.051 393.233 342.94 402.984 337.664C403.57 341.751 411.209 341.363 413.945 343.334C418.259 346.44 423.091 352.095 426.475 356.214C434.29 365.728 439.12 379.023 443.494 390.422C447.999 402.161 453.562 412.23 465.144 418.757C468.886 420.865 472.51 423.693 476.35 425.671C480.941 428.036 486.26 429.192 491.309 428.813C497.326 428.361 502.515 428.173 508.413 427.039C514.715 425.828 521.441 424.559 527.685 424.75C532.318 424.892 536.994 423.949 541.51 424.163C544.283 424.294 547.031 424.059 549.799 424.175C550.896 424.22 551.753 424.212 552.884 424.314C555.566 424.555 555.609 424.265 556.002 426.641C556.467 429.45 554.671 434.012 554.494 436.895C554.289 440.246 554.857 443.555 554.734 446.877C554.597 450.609 553.521 450.266 550.26 451.977C547.097 453.637 544.091 455.236 540.821 456.699C531.455 460.892 521.566 464.995 511.234 466.15C498.84 467.537 485.926 466.067 473.61 465.533C466.746 465.237 459.634 464.059 453.032 462.374C447.838 461.048 439.42 458.356 435.362 454.871C440.005 454.662 438.377 450.539 435.666 448.716C430.727 445.395 428.515 446.989 429.697 452.56C423.884 450.656 418.685 446.043 413.735 442.349C407.372 437.6 397.928 430.465 397.551 421.922C397.126 412.288 385.779 392.844 386.96 402.982C388.021 412.094 392.006 424.41 386.96 432.946C386.74 427.829 377.621 419.421 373.327 417.98C365.693 415.417 356.628 415.814 348.674 416.303C333.939 417.207 319.158 420.105 305.021 424.01C290.758 427.949 275.492 433.066 263.646 442.418C262.187 443.571 260.824 445.482 259.339 446.475C258.821 446.821 257.269 446.624 256.532 447.008C254.568 448.027 257.547 448.199 254.318 448.438C253.619 448.489 251.785 447.74 251.31 447.524C243.501 443.979 243.944 434.5 244.41 427.237C245.479 410.547 250.87 393.706 257.453 378.471C263.343 364.844 271.377 350.235 283.023 340.693C288.118 336.52 293.178 331.624 299.047 328.649C301.276 327.52 305.285 325.752 304.406 322.375C303.468 318.771 299.206 320.526 296.209 320.381C280.644 319.632 268.096 313.079 256.311 303.116C244.235 292.907 231.544 289.459 216.553 285.6C212.237 284.489 182.557 277.357 178.298 277.394C173.586 277.436 168.893 277.589 164.186 277.678C161.387 277.731 158.586 277.725 155.785 277.95C153.529 278.131 151.045 279.063 148.798 278.821C146.692 278.595 146.857 279.22 145.821 277.655C145.093 276.554 145.289 274.274 145.079 272.933C144.894 271.762 144.71 270.59 144.526 269.419C143.945 265.722 141.228 263.832 144.223 262.338C148.622 260.143 157.687 258.152 162.499 257.271C167.107 256.428 193.19 250.185 201.91 248.487C206.253 247.641 258.848 245.683 260.81 245.669C279.705 245.539 320.001 255.947 329.053 264.265C338.105 272.583 338.115 278.616 342.026 281.981C346.398 285.741 352.316 290.418 355.391 295.292C357.471 298.587 358.269 307.306 362.52 308.589C359.432 318.473 360.545 333.61 369.751 340.04Z" fill="#4E5CFF"/>
<path d="M557.009 450.436L559.09 418.797C562.976 419.352 570.83 420.462 571.163 420.462C571.496 420.462 612.654 405.753 633.191 398.398L634.857 407.141H637.354L648.594 411.304L643.183 420.462C644.154 420.879 645.847 422.461 644.848 425.458C643.849 428.455 638.881 433.09 636.522 435.033L593.643 441.277L557.009 450.436Z" fill="white" stroke="black"/>
<path d="M134.048 254.775L48.707 292.242V294.74H75.7665L59.5308 312.225L75.7665 325.546L104.491 306.397C112.54 299.736 131.967 285.665 145.288 282.667C158.61 279.67 150.839 271.705 145.288 268.097L134.048 254.775Z" fill="white"/>
<path d="M353.854 426.291L263.518 459.178C263.518 459.178 266.831 459.79 270.178 467.921C273.092 474.998 266.57 485.822 261.436 490.401C252.416 497.062 221.804 515.545 171.515 536.194C145.538 543.854 132.661 536.055 129.469 531.198L124.474 537.026L99.4956 531.198C94.2224 533.557 82.0942 542.771 75.7665 560.755C69.4387 578.74 72.0198 603.495 74.1013 613.625L86.5903 633.608C87.1453 629.167 88.5885 618.954 89.9207 613.625C91.2528 608.297 94.9163 614.181 96.5815 617.788L102.826 609.879H111.152L107.405 575.326C108.238 571.44 110.736 562.754 114.066 559.09C117.396 555.427 124.335 555.066 127.388 555.344L224.385 576.575L301.401 569.914L342.198 544.936L490.401 646.929L499.976 641.518L527.868 677.736L536.194 681.899L633.608 646.929C637.909 642.211 646.763 631.61 647.762 626.947C648.761 622.284 638.742 626.114 633.608 628.612C633.746 625.698 630.277 621.285 615.29 626.947C600.304 632.609 613.209 619.592 621.535 612.377L557.425 643.599H536.194L518.709 619.037L501.224 605.299L379.249 439.196L353.854 426.291Z" fill="white"/>
<path d="M368.841 332.542L367.592 310.062L388.407 305.482L396.733 298.405V278.423L395.484 265.934L415.467 252.196L433.784 248.449L452.517 263.852L467.504 275.925L461.676 291.328C463.619 293.271 468.087 298.072 470.418 301.736C473.332 306.315 470.835 307.564 467.504 313.808C464.174 320.053 463.341 318.388 459.178 320.053C455.848 321.385 452.517 316.445 451.269 313.808L449.187 317.139L418.381 326.714L407.973 317.139L400.064 335.039C394.791 336.427 381.164 337.87 368.841 332.542Z" fill="white"/>
<path fill-rule="evenodd" clip-rule="evenodd" d="M90.7386 309.519C91.9374 309.796 92.5177 309.319 92.7257 308.081C91.9405 308.649 91.3395 309.084 90.7386 309.519ZM106.434 602.96C105.37 603.018 106.423 605.712 106.558 605.701C106.516 604.788 106.475 603.874 106.434 602.96ZM396.317 269.759C397.703 269.992 405.503 272.125 402.877 267.774C401.466 265.436 398.62 269.761 396.317 269.759ZM370.543 322.359C366.574 324.555 378.817 332.307 380.569 332.793C382.28 333.268 395.182 334.978 395.337 332.137C390.834 331.141 386.311 331.742 381.898 330.411C376.5 328.783 374.415 326.101 370.543 322.359ZM563.505 442.082C563.742 438.546 563.885 435.113 564.604 431.633C564.753 430.911 565.969 427.579 565.699 427.146C565.275 426.467 562.04 425.899 561.372 425.671C560.858 432.597 560.275 439.499 559.313 446.383C561.572 445.603 560.983 442.495 563.505 442.082ZM141.465 279.892C141.465 276.103 140.455 270.464 139.7 266.787C139.082 263.78 136.881 260.856 135.622 257.832C135.23 259.913 133.855 263.092 134.294 265.215C134.869 267.983 136.18 267.528 136.18 270.934C136.18 273.005 135.837 275.364 136.215 277.401C136.955 281.413 138.143 280.771 141.465 279.892ZM433.087 250.654C428.544 248.137 420.778 252.925 416.705 255.126C411.87 257.74 407.006 264.766 405.044 269.87C406.966 269.656 408.59 269.621 409.987 268.586C410.706 268.053 411.462 266.549 412.141 265.839C413.892 264.008 416.098 262.302 418.02 260.636C422.599 256.664 427.552 253.15 433.087 250.654ZM459.942 314.096C463.715 313.432 468.065 311.719 469.145 307.469C470.188 303.362 467.178 301.373 463.498 300.862C455.056 299.689 449.347 311.937 459.942 314.096ZM430.485 301.421C434.647 304.327 439.196 303.959 443.317 300.712C446.618 298.113 449.839 293.668 446.099 290.491C440.09 285.385 431.478 295.832 430.485 301.421ZM610.004 622.974C607.399 623.134 603.198 625.857 600.913 627.198C598.047 628.881 595.03 630.655 592.257 632.207C586.503 635.428 580.038 639.043 573.658 641.458C567.403 643.826 561.094 646.805 554.706 649.605C551.974 650.803 548.149 652.203 545.05 651.878C542.215 651.58 539.237 648.665 536.696 647.387C532.751 645.404 530.186 642.83 527.034 639.656C525.661 638.274 522.165 632.466 520.311 632.248C518.727 632.062 514.397 635.528 513.16 636.271C511.249 637.422 508.364 639.308 506.547 640.753C504.749 642.184 504.65 641.132 504.524 643.012C504.439 644.29 507.369 646.797 508.272 647.827C511.308 651.286 514.477 654.672 517.344 658.281C519.806 661.381 522.098 664.709 524.213 668.057C526.264 671.305 530.065 675.063 530.892 678.86C535.664 674.189 540.351 676.467 546.349 675.059C548.946 674.449 551.253 673.01 553.686 672.157C555.714 671.446 557.892 671.213 559.979 670.752C569.237 668.707 578.219 664.707 586.878 661.13C588.9 660.295 590.578 658.697 592.532 657.732C594.627 656.697 596.913 656.351 599.024 655.399C604.455 652.95 609.962 650.376 615.333 647.754C621.093 644.942 627.164 642.511 632.817 639.543C636.232 637.75 642.857 634.536 644.435 630.739C640.662 631.415 637.495 633.565 634.001 634.652C627.839 636.569 628.14 630.768 628.14 626.348C626.078 626.348 621.938 629.305 619.964 630.223C617.415 631.408 614.072 634.541 611.242 634.752C604.238 635.273 607.622 626.06 610.004 622.974ZM362.609 308.513C358.696 307.332 357.914 299.855 356.257 296.763C353.814 292.202 349.132 288.508 345.396 284.943C341.959 281.665 338.281 278.892 334.426 276.139C330.477 273.318 327.745 269.608 324.113 266.498C308.948 253.511 290.428 249.115 270.856 248.436C251.194 247.754 231.35 249.926 211.594 251.188C209.077 251.349 206.827 251.42 204.315 251.844C203.712 251.662 203.109 251.48 202.506 251.298L201.109 252.304C200.14 252.446 198.763 252.594 197.871 252.767C193.267 253.66 188.666 254.847 184.065 255.888C174.31 258.093 164.879 260.12 155.048 262.18C152.703 262.671 147.002 262.987 145.163 264.474C143.737 265.628 144.27 266.083 144.603 268.203C144.909 270.152 145.215 272.102 145.523 274.051C146.118 277.836 145.86 279.143 149.952 278.751C153.47 278.414 156.899 277.79 160.457 277.629C165.572 277.395 170.771 277.098 175.887 277.2C180.955 277.3 186.793 276.459 191.755 277.759C190.225 274.553 189.324 264.841 193.383 271.562C195.292 274.721 194.819 278.592 198.921 279.72C202.266 280.64 205.904 281.176 209.352 282.049C222.941 285.489 237.106 287.86 248.699 296.817C260.062 305.596 270.403 315.702 284.947 318.906C288.436 319.675 292.677 320.122 296.35 320.299C298.489 320.402 302.742 319.107 304.195 321.039C307.725 325.728 294.651 331.245 292.031 333.582C286.705 338.331 280.684 342.043 276.071 347.586C271.251 353.378 267.108 359.691 263.558 366.297C255.57 381.16 249.93 396.92 246.651 413.462C245.098 421.293 243.344 430.262 244.739 438.275C245.303 441.508 247.114 444.728 249.902 446.57C250.808 447.17 251.945 447.585 252.992 447.9C253.982 448.225 254.997 448.416 256.038 448.476C256.154 447.89 256.376 447.351 256.703 446.857C257.44 446.475 258.991 446.671 259.509 446.325C260.993 445.333 262.354 443.423 263.813 442.27C266.345 440.271 269.08 438.37 271.865 436.755C278.891 432.684 286.54 430.289 294.058 427.728C309.534 422.456 325.745 418.134 342.178 416.524C350.85 415.675 360.597 415.152 369.191 416.762C374.733 417.8 385.979 422.668 386.268 429.396C391.294 420.892 388.108 411.945 387.029 402.856C385.823 392.696 383.754 383.101 387.165 373.074C389.485 366.254 393.476 357.255 400.26 353.772C402.69 352.525 407.875 353.277 406.076 357.399C406.029 357.505 402.646 359.431 402.165 359.992C400.519 361.908 399.272 364.414 398.046 366.614C388.295 384.112 396.971 403.216 397.611 421.785C397.908 430.357 407.435 437.462 413.783 442.202C418.716 445.885 423.935 450.508 429.733 452.407C428.552 446.839 430.761 445.246 435.697 448.566C438.406 450.388 440.033 454.508 435.393 454.716C439.051 457.86 446.523 460.296 451.173 461.506C456.62 462.924 462.195 464.187 467.87 464.99C479.2 466.593 490.737 466.084 502.13 466.201C513.86 466.321 523.647 463.189 534.424 459.12C539.37 457.252 544.019 455.092 548.725 452.638C550.32 451.806 553.94 450.84 554.818 449.018C555.948 446.671 554.258 440.584 554.359 437.9C554.466 435.042 556.586 429.105 555.938 426.502C555.319 424.01 556.889 425.761 554.357 424.515C553.673 424.178 552.138 424.003 551.3 423.909C546.614 423.38 541.073 423.815 536.52 424.402C531.302 425.074 526.468 424.167 521.396 424.767C514.355 425.599 507.13 426.846 500.328 428.862C489.595 432.044 479.662 431.818 470.071 425.731C466.014 423.156 461.235 420.514 457.758 416.99C453.084 412.254 449.658 405.511 447.019 399.464C441.213 386.16 436.983 372.193 429.034 359.92C425.628 354.66 420.89 350.379 416.514 345.9C414.445 343.782 413.255 342.562 410.42 341.65C408.133 340.916 403.488 340.691 403.041 337.572C393.297 342.847 379.865 346.95 369.833 339.947C360.637 333.527 359.526 318.381 362.609 308.513ZM362.103 435.641C349.405 437.042 337.109 438.093 324.62 440.984C312.021 443.9 298.878 448.347 286.919 452.737C282.227 454.459 276.282 455.674 272.035 458.34C268.883 460.318 269.277 460.244 271.539 463.889C273.054 466.33 274.327 469.063 275.948 471.406C282.535 480.932 291.557 489.08 299.128 497.723C307.492 507.272 317.293 516.725 326.878 525.092C336.098 533.139 345.187 541.761 354.99 548.991C375.422 564.063 396.115 578.926 417.35 592.843C429.143 600.573 440.654 608.492 452.48 616.277C458.628 620.325 464.366 624.795 470.898 628.176C477.638 631.665 485.872 636.55 491.421 641.702C495.295 634.854 503.485 630.42 509.614 625.989C510.838 625.105 512.154 623.909 513.326 622.917C515.557 621.03 515.67 621.344 514.478 619.185C513.166 616.81 509.59 614.897 507.718 612.932C506.005 611.135 504.874 609.313 503.319 607.391C498.146 600.994 491.482 595.683 485.691 589.865C480.116 584.263 474.934 578.575 469.485 572.61C466.786 569.656 463.72 567.53 461.132 564.541C457.538 560.39 453.994 556.138 450.446 551.944C444.079 544.419 438.729 536.431 432.534 528.868C421.261 515.105 412.709 499.545 402.842 484.782C396.786 475.722 389.298 467.264 383.793 457.845C380.761 452.657 377.84 447.486 375.667 441.818C374.429 438.588 374.728 438.336 371.707 437.391C368.792 436.48 365.112 435.847 362.103 435.641ZM204.345 567.82C210.774 567.199 217.387 569.333 223.625 569.597C229.69 569.853 235.895 570.513 241.971 570.114C248.64 569.676 255.348 569.689 261.99 569.896C269.191 570.119 276.051 568.953 282.992 567.936C290.009 566.907 297.651 563.716 304.51 561.675C308.567 560.467 312.47 558.9 316.547 557.762C320.67 556.61 323.956 553.874 327.713 551.774C330.276 550.342 335.712 548.606 334.574 545.66C333.562 543.041 326.821 539.11 324.617 537.208C318.096 531.582 311.486 525.999 305.446 519.824C292.636 506.727 280.427 493.663 269.604 478.881C267.033 486.156 264.195 493.537 258.511 499.074C253.682 503.779 248.116 507.812 242.957 512.097C232.938 520.417 220.885 526.344 208.918 531.136C202.997 533.507 197.271 535.029 191.305 537.126C188.48 538.119 185.472 537.925 182.824 538.549C178.811 539.493 174.619 541.446 170.554 542.593C164.824 544.21 159.031 545.345 153.04 544.829C145.244 544.158 138.763 540.336 131.662 537.571C132.032 540.334 129.91 550.124 131.482 552.191C132.354 553.337 137.932 553.808 139.66 554.194C146.712 555.767 154.217 556.719 161.262 557.632C168.733 558.599 175.78 562.297 183.069 564.018C189.948 565.642 197.547 567.155 204.345 567.82ZM78.8054 608.113C79.2543 613.354 79.9094 621.276 84.1525 625.046C85.7777 621.102 84.8763 615.771 85.5952 611.569C86.0235 609.066 86.6043 606.601 87.2089 604.136C87.5526 602.736 87.763 598.701 88.4941 597.888C93.7427 592.052 94.8059 609.424 95.4002 611.443C97.3423 606.758 96.7018 601.558 98.4268 596.982C100.49 591.507 103.716 595.912 105.475 599.35C105.995 591.791 103.025 584.172 103.13 576.468C103.243 568.254 104.639 562.789 110.932 557.257C113.94 554.613 121.975 551.376 123.423 548.051C123.669 547.486 123.606 543.316 123.446 542.735C122.771 540.291 123.022 540.793 120.055 540.082C117.456 539.458 115.036 538.617 112.405 538.228C105.24 537.166 99.7181 537.016 93.6448 541.478C87.3287 546.119 84.3265 554.376 82.6416 561.787C79.1996 576.926 77.6133 592.622 78.8054 608.113ZM574.894 440.915C585.627 439.546 596.253 435.156 606.838 434.426C613.203 433.987 620.299 432.529 626.535 431.193C630.635 430.315 639.203 429.592 641.491 425.624C638.727 426.476 635.079 428.414 632.189 428.49C630.065 428.545 629.325 428.947 628.904 426.03C628.703 424.635 629.157 422.96 630.004 421.863C631.463 419.974 634.587 419.05 636.708 417.849C639.567 416.23 642.227 414.496 644.919 412.612C644.098 410.574 632.622 414.661 630.825 415.307C628.597 416.107 626.338 416.884 624.2 417.906C622.796 418.576 620.363 420.74 618.778 420.682C614.772 420.537 615.132 415.702 617.074 412.924C619.824 408.989 625.307 406.06 629 403.001C625.052 403.169 621.464 405.476 617.836 406.857C613.827 408.383 609.763 410.117 605.84 411.82C596.212 416 585.956 418.864 576.165 422.897C579.109 427.918 575.763 430.389 570.956 428.543C570.231 432.778 569.948 437.09 569.948 441.375C571.597 441.222 573.246 441.068 574.894 440.915ZM128.711 270.048C128.764 269.121 129.467 264.597 128.634 263.814C128.343 263.54 123.66 264.2 123.199 264.267C120.154 264.714 117.638 265.854 114.786 267.069C107.806 270.043 100.748 272.725 93.7816 275.718C80.739 281.323 67.8199 286.527 55.6441 293.814C64.6923 293.049 73.9486 290.427 82.1866 286.608C85.6713 284.992 98.7504 274.131 99.1354 283.581C99.3057 287.764 95.7043 289.251 92.6637 291.266C88.9406 293.732 85.2917 296.179 81.8345 299.002C79.9957 300.505 65.3377 310.362 66.0469 311.94C69.7699 311.05 73.7728 308.239 77.0518 306.28C80.7013 304.098 84.5296 302.158 88.2977 300.175C90.3529 299.093 95.0425 295.335 97.3009 296.978C101.214 299.825 95.8509 305.116 94.0888 307.063C97.5138 306.707 102.103 301.721 104.768 299.642C108.137 297.014 111.681 294.666 115.101 292.079C118.676 289.375 122.419 286.839 126.048 284.2C129.438 281.736 128.889 281.75 128.557 277.691C128.348 275.141 128.564 272.593 128.711 270.048ZM276.952 443.89C281.362 443.438 285.314 440.725 289.549 439.875C293.72 439.038 297.659 436.714 301.761 435.397C307.157 433.664 312.62 432.382 318.194 431.404C322.873 430.582 327.388 428.803 332.071 428.259C341.733 427.136 350.96 425.839 360.688 427.222C365.505 427.906 369.723 428.917 374.029 431.219C378.822 433.781 379.295 433.654 384.441 431.389C382.832 427.058 376.728 424.183 372.632 423.301C366.461 421.972 359.991 422.571 353.706 422.781C342.853 423.143 331.584 425.501 321.185 428.424C301.25 434.027 282.09 440.553 263.766 449.889C265.316 452.018 266.951 449.43 268.747 448.335C271.371 446.734 274.275 445.444 276.952 443.89ZM446.549 282.249C443.072 281.562 439.595 281.285 436.123 280.458C431.735 279.413 429.813 281.003 425.729 283.045C427.364 283.789 429.446 285.078 431.185 285.528C434.247 286.32 433.222 285.68 436.132 284.515C438.714 283.481 443.575 283.065 446.231 283.604C453.346 285.048 452.204 293.447 451.524 299.046C455.029 297.342 455.474 294.135 456.72 290.872C458.069 287.34 459.521 284.132 460.56 280.46C456.12 281.621 451.161 282.298 446.549 282.249ZM502.4 415.332C515.023 410.619 529.2 411.822 542.184 410.723C547.181 410.301 554.088 411.058 559.007 412.659C561.364 413.426 564.016 413.988 566.251 415.027C567.451 415.585 568.421 416.925 569.655 417.339C572.071 418.148 571.946 417.673 574.536 416.254C576.806 415.009 579.095 413.822 581.428 412.702C595.543 405.931 609.788 399.926 624.315 394.279C628.086 392.813 631.837 391.825 635.712 390.546C638.159 389.738 642.438 388.091 645.071 388.929C654.25 391.848 640.896 402.814 637.886 405.638C641.632 405.463 648.51 403.716 650.677 407.882C651.576 409.609 651.26 412.135 650.455 413.864C649.865 415.129 648.58 415.86 647.931 417.055C646.709 419.307 647.18 418.498 647.366 420.754C647.881 427.018 646.655 429.791 641.435 433.81C636.501 437.608 630.121 439.227 624.237 440.89C613.948 443.798 603.152 444.622 592.73 447.131C587.83 448.312 582.714 449.076 577.799 449.967C572.341 450.956 565.92 450.19 561.3 453.22C552.066 459.275 543.599 466.834 533.35 471.215C524.304 475.081 515.872 476.972 506.153 478.641C497.004 480.213 487.528 479.097 478.693 479.322C468.361 479.586 458.778 478.881 448.929 475.902C438.914 472.874 429.252 468.999 420.731 463.208C415.916 459.935 411.123 456.782 406.593 453.096C401.069 448.602 397.307 443.277 393.175 437.502C390.802 440.063 388.904 441.484 385.799 443.122C395.283 453.542 403.292 465.63 412.294 476.48C416.045 481.003 419.157 485.879 422.714 490.496C426.235 495.067 428.576 500.723 432.441 504.976C436.049 508.945 438.493 513.546 441.553 517.95C445.304 523.351 450.35 528.077 454.344 533.334C458.466 538.759 462.684 544.112 467.16 549.2C471.309 553.915 475.724 558.561 479.605 563.461C487.5 573.428 496.854 582.436 505.831 591.439C507.672 593.284 509.694 595.072 511.327 597.106C512.532 598.605 513.705 599.598 515.155 601.161C516.371 602.469 517.856 604.755 518.85 606.337C520.603 609.13 521.654 610.356 523.959 612.771C525.479 614.364 528.51 617.535 527.86 620.007C527.461 621.523 525.624 621.575 525.109 622.843C524.821 623.549 525.415 624.449 525.393 625.157C525.284 628.636 526.971 629.6 529.745 632.149C532.54 634.718 536.151 636.773 539.443 638.69C541.927 640.136 544.502 642.101 547.252 640.781C549.163 639.864 551.149 638.115 553.158 637.078C558.247 634.452 563.743 632.095 568.931 629.979C580.528 625.249 592.152 620.101 603.284 614.041C609.562 610.622 616.412 607.238 623.326 605.589C626.439 604.846 629.725 602.978 632.017 605.751C634.293 608.501 632.825 612.252 631.549 615.033C634.769 614.568 639.037 613.66 641.121 616.852C641.91 618.06 641.398 621.25 642.261 621.952C642.641 622.262 645.716 621.587 646.323 621.746C654.173 623.813 651.436 635.445 647.488 639.826C638.468 649.836 625.012 654.77 613.271 660.536C610.199 662.045 607.088 663.335 603.922 664.576C599.868 666.165 596.159 668.173 592.043 669.657C585.186 672.129 578.559 675.719 571.877 678.448C565.053 681.236 557.456 682.627 550.287 684.694C544.207 686.446 531.302 690.447 531.17 680.623C525.43 685.093 518.091 670.501 515.169 667.056C512.534 663.948 509.912 660.791 507.412 657.573C505.13 654.636 502.886 647.493 499.896 645.58C498.069 644.41 496.047 646.751 493.236 647.309C488.357 648.277 485.939 646.904 481.823 644.637C474.283 640.484 467.33 635.378 459.6 631.56C451.946 627.781 445.416 622.3 438.238 617.706C431.36 613.305 423.919 609.636 417.461 604.747C404.798 595.159 390.072 588.535 378.19 577.886C372.065 572.396 364.879 567.824 358.342 562.734C355.363 560.414 352.214 558.442 349.12 556.295C347.379 555.087 345.705 553.291 343.799 552.372C341.906 551.46 342.868 551.103 341.098 551.791C340.09 552.184 338.933 554.013 338.103 554.75C325.828 565.656 311.966 570.812 296.474 575.678C292.967 576.78 289.703 577.977 286.143 578.909C282.747 579.797 280.262 581.328 276.566 581.862C269.748 582.849 263.034 582.902 256.167 582.943C249.406 582.983 242.451 583.085 235.885 583.67C229.129 584.273 222.102 583.114 215.47 582.566C212.114 582.289 208.645 581.792 205.282 581.28C202.003 580.782 199.234 581.415 196.007 581.062C186.936 580.072 178.862 578.017 170.219 575.058C162.333 572.359 154.279 571.872 146.299 569.619C142.057 568.421 137.252 567.435 133.343 565.429C131.122 564.29 127.854 560.193 126.854 563.097C125.669 561.569 124.913 559.756 125.042 557.79C122.007 558.535 120.472 562.456 118.246 564.509C115.778 566.785 113.348 568.278 111.665 571.36C107.901 578.257 110.347 587.678 111.83 594.912C113.385 602.499 114.791 611.082 113.892 618.826C113.565 621.648 112.817 625.776 109.344 625.962C105.809 626.15 103.739 620.601 102.488 618.168C99.7826 624.617 96.2328 626.887 91.0956 621.397C90.1188 625.054 92.7494 639.833 85.4116 638.122C79.9106 636.839 75.3232 624.803 73.687 620.279C68.3004 605.389 69.1477 588.294 71.0126 572.816C72.8215 557.803 74.4996 541.286 86.6676 530.525C91.9319 525.869 97.0686 525.104 103.743 525.276C110.45 525.448 119.869 528.447 124.338 533.568C125.446 531.674 123.224 529.62 124.117 527.658C125.309 525.039 127.801 526.135 130.216 526.729C135.673 528.068 140.744 530.567 146.363 531.511C149.24 531.995 152.202 531.848 155.081 532.141C157.614 532.398 158.288 531.746 160.487 531.358C162.22 531.052 164.851 531.487 166.488 530.919C167.171 530.681 168.313 529.448 169.166 529.031C170.556 528.35 172.636 528.04 174.162 527.823C183.344 526.515 192.121 522.966 201.011 519.943C211.814 516.269 222.305 512.729 231.885 506.202C240.654 500.226 250.097 494.334 257.34 486.519C260.589 483.014 262.469 478.991 264.228 474.631C265.774 470.8 263.777 470.308 261.903 466.75C260.256 463.625 259.966 460.678 257.128 458.79C252.981 456.031 248.077 455.501 244.003 452.265C238.995 448.288 239.167 441.952 238.064 435.894C235.809 423.506 237.622 408.553 240.696 396.474C244.073 383.206 249.012 370.373 255.664 358.418C261.936 347.148 270.416 338.694 279.53 329.842C277.238 328.25 273.283 328.012 270.553 326.79C266.567 325.005 263.307 322.358 259.833 319.898C253.347 315.306 247.47 310.283 240.507 306.414C234.04 302.818 227.219 299.776 220.324 297.455C216.826 296.277 212.679 296.576 209.016 295.599C206.158 294.836 202.911 294.37 200.142 293.351C198.714 292.826 197.462 291.672 195.99 291.345C179.988 287.789 162.275 288.497 145.659 288.407C142.111 288.387 136.445 287.347 133.15 288.892C129.712 290.504 125.858 294.477 122.779 296.758C115.531 302.127 107.874 306.786 100.835 312.397C92.5006 319.039 83.987 325.622 75.3475 331.881C72.3836 334.028 66.9744 339.229 64.5567 333.959C62.4832 329.436 66.6557 324.898 68.1745 321.044C63.9028 323.489 54.9793 330.272 52.7519 322.427C50.5981 314.84 57.4293 307.727 61.9066 302.579C56.8837 303.603 47.2028 306.443 42.6599 302.953C38.0025 299.374 41.9981 291.559 45.313 288.814C55.4148 280.448 68.8922 275.294 80.9847 270.574C93.2561 265.784 105.616 262.197 118.206 258.844C120.796 258.154 123.023 255.964 125.711 255.722C128.808 255.444 127.672 257.472 129.145 254.03C129.785 252.533 129.549 250.704 130.391 249.269C134.488 242.301 139.747 252.715 141.327 256.355C150.082 252.758 159.008 251.059 167.954 248.412C175.024 246.32 182.292 244.035 189.447 242.013C193.301 240.924 197.198 240.38 201.095 239.661C204.817 238.974 209.242 237.863 213.204 237.481C219.962 236.827 227.127 236.193 233.789 236.04C266.328 235.288 300.923 233.216 327.284 256.452C327.284 258.57 334.072 264.301 335.746 265.468C340.413 268.723 344.553 271.919 348.879 275.784C353.556 279.963 357.297 283.576 360.07 289.25C362.46 294.14 363.044 299.536 364.318 304.784C367.718 300.91 368.765 304.553 369.42 307.741C370.124 311.169 370.962 313.228 373.15 316.038C377.826 322.046 383.97 325.195 391.484 325.938C392.864 326.075 397.43 326.464 398.714 325.936C401.043 324.979 400.346 324.407 401.346 321.832C402.108 319.87 403.23 318.434 404.224 316.617C405.437 315.752 405.896 314.595 405.599 313.149C405.632 312.512 405.666 311.875 405.698 311.239C408.225 309.754 411.102 316.592 412.031 317.826C414.726 321.405 417.633 322.013 422.012 322.013C421.726 319.618 421.092 319.483 423.347 318.389C424.738 317.714 426.731 318.188 428.05 318.723C431.842 320.262 431.761 321.017 436.046 319.26C439.215 317.961 442.052 316.272 444.919 314.42C447.36 312.843 447.744 312.575 448.681 309.819C449.398 307.71 449.282 304.906 449.55 302.719C446.657 304.455 444.962 307.805 441.787 309.528C438.566 311.276 434.681 312.369 431.176 310.76C423.879 307.411 425.935 298.15 428.087 292.275C424.752 291.703 421.26 289.718 419.127 287.104C417.691 285.343 416.652 283.148 415.117 281.137C411.615 276.551 402.561 275.453 400.845 282.456C399.971 286.021 402.045 287.294 405.315 287.747C409.208 288.286 410.156 287.329 408.739 291.929C407.177 292.732 406.692 293.984 407.284 295.684C407.187 296.25 407.089 296.815 406.992 297.381C406.638 298.806 405.878 299.907 405.463 301.277C404.286 305.157 404.083 306.22 399.695 307.403C391.997 309.478 383.056 310.561 375.12 311.241C372.48 311.467 369.683 311.439 370.557 307.855C371.279 304.895 376.194 303.894 378.686 302.98C381.574 301.922 386.907 301.429 389.381 299.901C392.017 298.273 391.764 295.316 391.173 292.171C390.437 288.247 389.687 285.261 389.806 281.044C389.938 276.425 391.598 274.75 394.349 271.093C387.097 273.106 378.998 278.372 371.468 278.361C361.448 278.347 363.305 268.045 365.303 261.271C361.642 261.889 355.959 263.418 354.164 258.834C352.065 253.475 357.302 247.287 360.516 243.714C356.304 243.304 352.286 244.322 350.751 239.241C349.683 235.704 350.994 231.529 353.425 228.86C359.793 221.871 369.691 220.474 378.415 219.488C383.239 218.943 388.156 218.489 392.995 218.944C397.687 219.385 401.361 221.361 405.642 223.346C410.118 225.422 413.159 228.317 416.148 232.278C417.553 234.14 418.724 235.945 419.511 238.156C419.894 239.235 420.254 244.57 421.101 245.181C422.352 246.086 430.02 242.936 432.205 243.025C434.619 243.122 436.117 243.874 437.544 245.9C438.316 246.999 439.104 251.058 440.55 251.501C441.249 251.715 445.608 249.918 446.632 249.762C448.122 249.534 449.562 249.207 451.088 249.06C455.829 248.603 460.757 248.475 465.356 249.93C474.535 252.832 479.765 261.16 477.365 270.971C476.917 272.799 475.666 274.134 475.118 275.868C474.382 278.198 474.65 280.637 474.097 283.047C472.932 288.124 470.769 291.138 466.387 293.777C480.474 304.99 465.195 330.474 450.642 317.616C446.507 323.414 437.502 327.563 430.748 329.176C421.646 331.351 413.193 330.076 408.326 321.679C407.773 323.119 406.877 324.671 406.605 326.172C406.391 326.731 406.177 327.288 405.964 327.846C405.328 328.691 405.633 329.18 406.88 329.31C407.731 331.715 408.356 331.959 407.102 334.868C416.404 331.647 426.209 340.024 432.632 346.232C436.958 350.415 439.259 356.551 441.969 361.787C445.147 367.929 447.567 374.347 450.503 380.588C453.14 386.198 454.768 392.292 457.648 397.778C460.372 402.968 464.779 406.712 469.351 410.038C473.591 413.123 477.846 416.207 483.273 417.49C489.456 418.951 496.357 416.883 502.4 415.332Z" fill="black"/>
<path fill-rule="evenodd" clip-rule="evenodd" d="M87.8375 443.66C88.316 436.039 99.839 429.101 105.063 424.435C111.837 418.385 118.639 412.276 126.077 406.932C144.706 393.55 164.064 381.498 184.686 371.5C187.841 369.97 210.841 359.056 211.475 365.224C211.854 368.916 202.491 370.762 199.932 371.867C194.32 374.29 188.996 377.336 183.573 380.108C167.301 388.428 152.542 400.188 137.478 410.823C128.488 417.171 120.078 424.345 111.175 430.783C106.429 434.214 102.258 438.293 97.675 441.851C94.4062 444.388 89.4068 449.745 87.8375 443.66Z" fill="black"/>
<path fill-rule="evenodd" clip-rule="evenodd" d="M477.028 493.154C479.575 492.122 482.51 502.462 483.622 504.307C485.742 507.825 488.062 511.46 490.636 514.646C496.58 522.007 502.614 529.063 509.625 535.448C516.344 541.568 523.931 547.363 531.992 551.652C534.314 552.887 551.707 558.421 545.152 563.946C543.125 565.654 536.78 564.036 534.606 563.355C530.848 562.179 526.686 560.22 523.246 558.317C516.03 554.325 509.282 549.232 503.499 543.346C496.888 536.616 491.483 529.234 486.164 521.466C481.391 514.496 474.085 501.749 477.028 493.154Z" fill="black"/>
<path fill-rule="evenodd" clip-rule="evenodd" d="M186.486 406.707C185.48 408.905 183.745 408.307 181.868 409.007C178.951 410.094 176.18 412.083 173.48 413.635C168.29 416.616 163.152 419.718 158.073 422.884C148.639 428.768 139.524 435.136 131.103 442.406C125.797 437.07 152.366 418.274 155.854 416.029C161.069 412.674 166.483 409.212 172.078 406.513C176.467 404.396 186.291 398.643 186.486 406.707Z" fill="black"/>
<path fill-rule="evenodd" clip-rule="evenodd" d="M510.417 508.011C513.94 507.284 514.953 512.796 516.419 514.519C518.747 517.256 521.716 519.597 524.497 521.773C527.883 524.421 530.934 527.152 534.491 529.575C537.384 531.546 543.756 534.619 543.208 538.952C541.956 548.856 524.126 534.604 521.126 531.64C516.849 527.416 504.34 514.304 510.417 508.011Z" fill="black"/>
<path fill-rule="evenodd" clip-rule="evenodd" d="M550.674 529.758C548.249 538.213 531.934 523.117 533.173 517.039C534.299 511.524 540.194 517.231 542.677 519.325C546.101 522.213 550.512 525.068 550.674 529.758Z" fill="black"/>
<path fill-rule="evenodd" clip-rule="evenodd" d="M172.165 437.804C168.352 436.717 158.915 441.502 164.632 434.201C166.265 432.116 168.108 430.127 170.387 431.239C172.692 432.365 173.866 435.89 172.165 437.804Z" fill="black"/>
<path fill-rule="evenodd" clip-rule="evenodd" d="M410.134 333.848C409.233 334.224 408.332 334.599 407.431 334.974C407.753 334.073 408.077 333.172 408.401 332.271C408.74 333.178 409.317 333.703 410.134 333.848Z" fill="black"/>
<path fill-rule="evenodd" clip-rule="evenodd" d="M219.594 237.141C217.513 237.513 215.624 237.58 213.513 237.514C215.572 237.155 217.513 237.162 219.594 237.141Z" fill="black"/>
<path fill-rule="evenodd" clip-rule="evenodd" d="M69.8318 593.756C69.8994 595.559 69.9662 597.362 70.0325 599.161C69.9649 597.356 69.8987 595.556 69.8318 593.756Z" fill="black"/>
<path fill-rule="evenodd" clip-rule="evenodd" d="M477.934 268.757C477.895 267.18 477.857 265.602 477.819 264.027C478.455 265.596 478.32 267.174 477.934 268.757Z" fill="black"/>
<path fill-rule="evenodd" clip-rule="evenodd" d="M227.026 236.843C225.45 236.85 223.873 236.858 222.297 236.866C224.103 236.331 225.728 236.323 227.026 236.843Z" fill="black"/>
<path fill-rule="evenodd" clip-rule="evenodd" d="M237.586 414.703C237.527 416.055 237.469 417.407 237.413 418.757C237.471 417.405 237.528 416.054 237.586 414.703Z" fill="black"/>
<path fill-rule="evenodd" clip-rule="evenodd" d="M273.648 235.457L269.594 235.166C270.945 235.263 272.296 235.36 273.648 235.457Z" fill="black"/>
<path fill-rule="evenodd" clip-rule="evenodd" d="M100.675 525.267C99.315 525.297 97.9273 525.767 96.6213 524.928C97.9722 525.041 99.3244 525.154 100.675 525.267Z" fill="black"/>
<path fill-rule="evenodd" clip-rule="evenodd" d="M643.917 405.357C642.606 406.226 641.214 405.548 639.863 405.649C641.214 405.551 642.565 405.455 643.917 405.357Z" fill="black"/>
<path fill-rule="evenodd" clip-rule="evenodd" d="M374.999 220.191C373.702 221.076 372.307 220.551 370.945 220.508C372.296 220.402 373.648 220.297 374.999 220.191Z" fill="black"/>
<path fill-rule="evenodd" clip-rule="evenodd" d="M156.756 532.113C155.63 532.125 154.503 532.136 153.378 532.147C154.501 531.523 155.627 531.637 156.756 532.113Z" fill="black"/>
<path fill-rule="evenodd" clip-rule="evenodd" d="M356.756 243.461C357.433 243.434 358.111 243.407 358.783 243.379C358.103 243.406 357.429 243.433 356.756 243.461Z" fill="black"/>
<path fill-rule="evenodd" clip-rule="evenodd" d="M254.053 235.192C253.152 235.319 252.25 235.446 251.351 235.572C252.168 234.579 253.155 235.343 254.053 235.192Z" fill="black"/>
<path fill-rule="evenodd" clip-rule="evenodd" d="M95.9456 624.565C96.6232 624.521 97.3013 624.478 97.9726 624.436C97.2932 624.479 96.6194 624.522 95.9456 624.565Z" fill="black"/>
<path fill-rule="evenodd" clip-rule="evenodd" d="M516.89 412.295C515.989 412.323 515.088 412.352 514.188 412.38C515.089 412.352 515.989 412.323 516.89 412.295Z" fill="black"/>
<path fill-rule="evenodd" clip-rule="evenodd" d="M407.114 295.785C407.1 295.108 407.086 294.431 407.073 293.758C407.086 294.436 407.1 295.11 407.114 295.785Z" fill="black"/>
<path fill-rule="evenodd" clip-rule="evenodd" d="M391.632 296.461C391.578 297.363 391.525 298.264 391.474 299.164C391.528 298.261 391.58 297.361 391.632 296.461Z" fill="black"/>
<path fill-rule="evenodd" clip-rule="evenodd" d="M242.567 583.334C243.245 583.301 243.922 583.267 244.594 583.234C243.914 583.267 243.241 583.301 242.567 583.334Z" fill="black"/>
<path fill-rule="evenodd" clip-rule="evenodd" d="M52.0269 304.238C52.705 304.233 53.3826 304.227 54.0539 304.223C53.3738 304.227 52.7 304.233 52.0269 304.238Z" fill="black"/>
<path fill-rule="evenodd" clip-rule="evenodd" d="M551.35 411.254C550.448 411.254 549.547 411.252 548.647 411.251C549.549 410.802 550.45 410.324 551.35 411.254Z" fill="black"/>
<path fill-rule="evenodd" clip-rule="evenodd" d="M550.196 529.568C550.164 528.666 550.133 527.764 550.101 526.865C550.667 527.75 550.75 528.649 550.196 529.568Z" fill="black"/>
<path fill-rule="evenodd" clip-rule="evenodd" d="M186.858 406.595C186.835 405.694 186.813 404.792 186.79 403.893C186.814 404.794 186.836 405.695 186.858 406.595Z" fill="black"/>
<path fill-rule="evenodd" clip-rule="evenodd" d="M134.459 288.72C134.911 288.699 135.364 288.678 135.81 288.658C135.356 288.678 134.908 288.699 134.459 288.72Z" fill="black"/>
<path fill-rule="evenodd" clip-rule="evenodd" d="M545.268 410.74C544.371 411.392 543.469 411.395 542.566 410.756C543.467 410.751 544.368 410.746 545.268 410.74Z" fill="black"/>
<path fill-rule="evenodd" clip-rule="evenodd" d="M166.891 530.244C166.553 531.267 165.621 530.827 164.864 530.817C165.54 530.627 166.216 530.436 166.891 530.244Z" fill="black"/>
<path fill-rule="evenodd" clip-rule="evenodd" d="M359.458 262.381C359.91 262.352 360.362 262.323 360.81 262.295C360.356 262.325 359.907 262.352 359.458 262.381Z" fill="black"/>
<path fill-rule="evenodd" clip-rule="evenodd" d="M235.134 235.82C234.233 235.932 233.331 236.045 232.432 236.156C233.333 236.044 234.234 235.932 235.134 235.82Z" fill="black"/>
<path fill-rule="evenodd" clip-rule="evenodd" d="M567.566 450.826C568.018 450.842 568.47 450.859 568.917 450.878C568.463 450.862 568.014 450.844 567.566 450.826Z" fill="black"/>
<path fill-rule="evenodd" clip-rule="evenodd" d="M240.282 444.434C240.229 445.111 240.176 445.788 240.121 446.461C240.174 445.782 240.228 445.108 240.282 444.434Z" fill="black"/>
<path fill-rule="evenodd" clip-rule="evenodd" d="M372.296 310.973C372.748 310.983 373.201 310.993 373.647 311.002C373.193 310.991 372.744 310.982 372.296 310.973Z" fill="black"/>
<path fill-rule="evenodd" clip-rule="evenodd" d="M163.513 573.102C163.965 573.133 164.418 573.164 164.864 573.195C164.41 573.163 163.961 573.132 163.513 573.102Z" fill="black"/>
<path fill-rule="evenodd" clip-rule="evenodd" d="M524.998 411.889C524.097 411.887 523.196 411.884 522.296 411.881C523.199 411.18 524.099 411.403 524.998 411.889Z" fill="black"/>
<path fill-rule="evenodd" clip-rule="evenodd" d="M613.511 443.468C613.963 443.435 614.415 443.403 614.863 443.371C614.409 443.403 613.96 443.435 613.511 443.468Z" fill="black"/>
<path fill-rule="evenodd" clip-rule="evenodd" d="M627.025 604.723C626.124 604.845 625.223 604.967 624.322 605.089C625.224 604.967 626.125 604.845 627.025 604.723Z" fill="black"/>
<path fill-rule="evenodd" clip-rule="evenodd" d="M354.481 255.244C354.422 255.921 354.362 256.598 354.301 257.271C354.36 256.593 354.421 255.919 354.481 255.244Z" fill="black"/>
<path fill-rule="evenodd" clip-rule="evenodd" d="M277.026 443.78C274.282 445.308 271.319 446.589 268.617 448.15C266.709 449.252 265.155 451.842 263.513 449.678C267.132 447.909 272.997 443.401 277.026 443.78Z" fill="black"/>
<path fill-rule="evenodd" clip-rule="evenodd" d="M103.216 580.243C102.662 578.661 102.669 577.084 103.27 575.514C103.252 577.092 103.234 578.668 103.216 580.243Z" fill="black"/>
<path fill-rule="evenodd" clip-rule="evenodd" d="M106.611 602.541C106.657 603.442 106.703 604.343 106.749 605.244C106.598 605.254 105.43 602.599 106.611 602.541Z" fill="black"/>
<path fill-rule="evenodd" clip-rule="evenodd" d="M128.607 273.488C128.68 272.361 128.753 271.233 128.825 270.109C128.753 271.237 128.68 272.362 128.607 273.488Z" fill="black"/>
<path fill-rule="evenodd" clip-rule="evenodd" d="M449.323 281.95C448.419 281.938 447.516 281.926 446.62 281.916C447.525 281.928 448.424 281.939 449.323 281.95Z" fill="black"/>
<path fill-rule="evenodd" clip-rule="evenodd" d="M247.972 569.904C249.099 569.814 250.225 569.724 251.351 569.635C250.225 569.725 249.098 569.814 247.972 569.904Z" fill="black"/>
<path fill-rule="evenodd" clip-rule="evenodd" d="M79.2392 609.973C79.3405 610.874 79.4426 611.776 79.5439 612.675C79.4419 611.774 79.3399 610.873 79.2392 609.973Z" fill="black"/>
<path fill-rule="evenodd" clip-rule="evenodd" d="M204.729 567.902C205.63 567.795 206.531 567.69 207.432 567.584C206.531 567.69 205.63 567.796 204.729 567.902Z" fill="black"/>
<path fill-rule="evenodd" clip-rule="evenodd" d="M196.621 566.302C197.513 566.514 198.528 565.547 199.324 566.668C198.422 566.545 197.522 566.423 196.621 566.302Z" fill="black"/>
<path fill-rule="evenodd" clip-rule="evenodd" d="M78.7948 591.73C78.7421 592.407 78.6887 593.084 78.6367 593.757C78.6907 593.079 78.7427 592.405 78.7948 591.73Z" fill="black"/>
<path fill-rule="evenodd" clip-rule="evenodd" d="M98.2743 299.162C98.2979 299.839 98.3216 300.515 98.3466 301.189C98.3236 300.511 98.2986 299.836 98.2743 299.162Z" fill="black"/>
<path fill-rule="evenodd" clip-rule="evenodd" d="M88.0343 599.838C88.1282 599.162 88.2221 598.485 88.3161 597.811C88.2215 598.488 88.1282 599.163 88.0343 599.838Z" fill="black"/>
<path fill-rule="evenodd" clip-rule="evenodd" d="M78.6188 605.918C78.6836 606.595 78.7478 607.271 78.8127 607.945C78.7478 607.268 78.6836 606.593 78.6188 605.918Z" fill="black"/>
<path fill-rule="evenodd" clip-rule="evenodd" d="M570.395 437.676C570.97 438.35 570.939 439.027 570.409 439.703C570.405 439.025 570.4 438.35 570.395 437.676Z" fill="black"/>
<path fill-rule="evenodd" clip-rule="evenodd" d="M363.512 435.374C363.06 435.332 362.608 435.291 362.161 435.248C362.615 435.289 363.063 435.332 363.512 435.374Z" fill="black"/>
<path fill-rule="evenodd" clip-rule="evenodd" d="M521.192 448.433C516.189 449.16 520.801 442.239 522.157 441.278C523.734 440.162 525.403 439.719 526.931 438.378C527.888 437.539 528.971 435.516 530.439 435.655C533.677 435.96 532.217 440.602 531.251 442.592C529.36 446.489 525.404 448.499 521.192 448.433Z" fill="black"/>
<path fill-rule="evenodd" clip-rule="evenodd" d="M358.851 368.758C355.906 367.714 341.019 364.884 347.612 358.856C351.968 354.873 364.07 365.055 358.851 368.758Z" fill="black"/>
<path fill-rule="evenodd" clip-rule="evenodd" d="M290.55 415.965C290.09 410.698 304.378 404.864 302.538 411.784C302.111 413.393 298.061 417.363 296.956 418.414C293.998 421.229 290.552 420.616 290.55 415.965Z" fill="black"/>
<path fill-rule="evenodd" clip-rule="evenodd" d="M156.756 270.399C157.724 266.985 158.791 265.381 162.174 264.063C164.336 263.219 167.919 262.452 168.232 265.973C168.464 268.572 164.797 271.1 163.023 272.206C159.851 274.185 158.103 274.08 156.756 270.399Z" fill="black"/>
<path fill-rule="evenodd" clip-rule="evenodd" d="M349.988 396.028C350.023 399.61 348.77 403.822 345.615 405.973C343.146 407.657 337.53 408.449 339.661 403.57C340.311 402.084 342.143 401.349 343.263 400.247C345.107 398.434 345.259 396.47 346.29 394.773C346.643 394.192 346.085 392.819 347.193 392.48C349.044 391.915 350.117 394.729 349.988 396.028Z" fill="black"/>
<path fill-rule="evenodd" clip-rule="evenodd" d="M417.018 366.73C419.565 366.726 421.972 367.641 420.491 370.548C419.367 372.752 414.49 374.442 412.284 374.751C409.451 375.147 406.287 374.272 407.841 370.682C409.137 367.693 414.213 367.424 417.018 366.73Z" fill="black"/>
<path fill-rule="evenodd" clip-rule="evenodd" d="M437.836 414.031C437.731 420.598 425.895 413.734 427.114 408.807C428.649 402.599 436.888 411.131 437.836 414.031Z" fill="black"/>
<path fill-rule="evenodd" clip-rule="evenodd" d="M302.021 298.479C302.021 304.058 290.263 296.914 291.277 292.034C292.63 285.529 302.267 294.266 302.021 298.479Z" fill="black"/>
<path fill-rule="evenodd" clip-rule="evenodd" d="M290.425 274.838C285.457 270.867 296.847 260.651 300.117 265.149C303.078 269.224 293.422 274.595 290.425 274.838Z" fill="black"/>
<path fill-rule="evenodd" clip-rule="evenodd" d="M293.859 358.622C291.137 358.377 287.999 358.404 285.603 356.843C283.854 355.705 280.818 351.307 283.482 349.408C285.122 348.239 289.262 351.567 290.942 352.442C293.807 353.933 295.713 354.862 293.859 358.622Z" fill="black"/>
<path fill-rule="evenodd" clip-rule="evenodd" d="M409.086 395.783C402.673 395.867 400.645 388.117 408.372 389.116C410.426 389.382 415.49 389.876 415.539 392.582C415.595 395.702 411.511 395.383 409.086 395.783Z" fill="black"/>
<path fill-rule="evenodd" clip-rule="evenodd" d="M343.918 324.378C343.456 327.322 342.661 329.486 340.077 331.207C337.857 332.685 333.496 334.653 333.798 330.237C333.977 327.608 342.732 317.774 343.918 324.378Z" fill="black"/>
<path fill-rule="evenodd" clip-rule="evenodd" d="M219.05 262C221.602 263.222 224.934 276.242 221.512 277.387C216.072 279.207 217.306 264.305 219.05 262Z" fill="black"/>
<path fill-rule="evenodd" clip-rule="evenodd" d="M329.945 384.297C325.98 379.798 336.369 370.854 338.87 375.43C340.936 379.21 332.354 382.699 329.945 384.297Z" fill="black"/>
<path fill-rule="evenodd" clip-rule="evenodd" d="M258.796 265.021C259.495 258.126 267.422 268.306 266.863 271.621C265.882 277.426 258.43 268.108 258.796 265.021Z" fill="black"/>
<path fill-rule="evenodd" clip-rule="evenodd" d="M264.864 436.487C264.822 441.088 255.788 436.317 256.841 431.459C258.031 425.971 264.797 433.921 264.864 436.487Z" fill="black"/>
<path fill-rule="evenodd" clip-rule="evenodd" d="M447.296 439.711C449.974 431.706 451.54 437.152 452.292 442.204C452.533 443.818 453.62 448.283 450.821 447.77C448.219 447.293 447.507 441.405 447.296 439.711Z" fill="black"/>
<path fill-rule="evenodd" clip-rule="evenodd" d="M480.05 444.434C482.149 445.871 486.345 456.624 481.63 455.096C478.034 453.932 477.289 446.554 480.05 444.434Z" fill="black"/>
<path fill-rule="evenodd" clip-rule="evenodd" d="M374.142 400.514C374.38 403.401 374.771 404.39 376.309 406.768C377.629 408.809 378.49 409.761 376.63 412C374.424 410.317 371.758 409.008 371.1 406.202C370.59 404.034 371.272 400.603 374.142 400.514Z" fill="black"/>
<path fill-rule="evenodd" clip-rule="evenodd" d="M311.336 370.783C309.782 369.549 304.364 362.964 305.581 360.574C307.082 357.624 314.634 366.248 311.336 370.783Z" fill="black"/>
<path fill-rule="evenodd" clip-rule="evenodd" d="M413.369 418.758C415.048 420.246 414.274 423.39 414.561 425.314C414.852 427.265 416.476 429.868 414.772 431.596C410.581 429.199 410.724 422.178 413.369 418.758Z" fill="black"/>
<path fill-rule="evenodd" clip-rule="evenodd" d="M269.594 393.739C269.566 391.417 275.095 387.193 276.244 389.906C277.23 392.235 271.085 399.208 269.594 393.739Z" fill="black"/>
<g filter="url(#filter0_f_106_10767)">
<ellipse cx="88.5" cy="652.5" rx="36.5" ry="8.5" fill="#D9D9D9"/>
</g>
<g filter="url(#filter1_f_106_10767)">
<ellipse cx="565.5" cy="707.5" rx="65.5" ry="7.5" fill="#D9D9D9"/>
</g>
<g filter="url(#filter2_f_106_10767)">
<ellipse cx="308" cy="666.499" rx="104" ry="10.5" transform="rotate(1.22223 308 666.499)" fill="black" fill-opacity="0.05"/>
</g>
<path d="M273.156 253.484C268.104 250.568 265.238 246.699 264.556 241.88C264.019 237.143 265.542 231.672 269.126 225.465C271.626 221.135 274.725 216.766 278.425 212.359C282.269 208.035 286.431 203.991 290.913 200.228L290.462 204.009C284.783 202.847 278.187 200.771 270.675 197.781C263.164 194.791 255.944 191.297 249.016 187.297C242.376 183.463 238.094 179.547 236.168 175.549C234.471 171.49 234.788 167.439 237.122 163.398C240.705 157.191 246.099 150.683 253.302 143.872C260.506 137.061 268.484 130.409 277.237 123.916C286.134 117.506 294.645 111.931 302.77 107.192C315.538 99.7443 327.466 95.0841 338.555 93.2109C349.727 91.1934 360.148 92.9763 369.819 98.5596C379.201 103.976 384.507 110.119 385.737 116.988C387.112 123.94 385.258 131.818 380.175 140.623C375.258 149.139 368.756 158.568 360.668 168.909C352.664 179.107 343.813 189.104 334.115 198.901L332.675 194.894C335.113 195.339 337.569 196.084 340.045 197.129C342.605 198.029 344.823 199.021 346.699 200.104C358.535 206.937 361.703 215.117 356.203 224.644C353.369 229.551 349.326 232.22 344.074 232.652C338.965 233.167 333.452 231.716 327.534 228.299C324.936 226.799 322.493 225.196 320.206 223.491C318.147 221.725 316.418 220.053 315.019 218.475L317.376 218.393C316.082 221.302 314.37 224.933 312.242 229.285C310.198 233.493 308.092 237.474 305.925 241.227C301.509 248.876 296.402 253.722 290.604 255.764C285.034 257.744 279.218 256.984 273.156 253.484ZM285.468 169.66C290.087 172.326 294.742 173.763 299.434 173.97C304.209 174.033 308.865 172.968 313.402 170.776C318.167 168.524 322.657 165.246 326.873 160.945C331.316 156.582 335.371 151.225 339.038 144.874C342.038 139.678 343.308 135.311 342.848 131.774C342.616 128.176 341.057 125.544 338.17 123.877C334.273 121.627 329.728 120.832 324.537 121.491C319.428 122.005 314.108 123.553 308.577 126.133C303.274 128.652 298.256 132.01 293.524 136.206C288.875 140.258 285.134 144.737 282.301 149.645C279.468 154.552 278.436 158.672 279.207 162.004C280.061 165.191 282.148 167.743 285.468 169.66Z" fill="black"/>
<defs>
<filter id="filter0_f_106_10767" x="48" y="640" width="81" height="25" filterUnits="userSpaceOnUse" color-interpolation-filters="sRGB">
<feFlood flood-opacity="0" result="BackgroundImageFix"/>
<feBlend mode="normal" in="SourceGraphic" in2="BackgroundImageFix" result="shape"/>
<feGaussianBlur stdDeviation="2" result="effect1_foregroundBlur_106_10767"/>
</filter>
<filter id="filter1_f_106_10767" x="496" y="696" width="139" height="23" filterUnits="userSpaceOnUse" color-interpolation-filters="sRGB">
<feFlood flood-opacity="0" result="BackgroundImageFix"/>
<feBlend mode="normal" in="SourceGraphic" in2="BackgroundImageFix" result="shape"/>
<feGaussianBlur stdDeviation="2" result="effect1_foregroundBlur_106_10767"/>
</filter>
<filter id="filter2_f_106_10767" x="183.024" y="634.768" width="249.953" height="63.4629" filterUnits="userSpaceOnUse" color-interpolation-filters="sRGB">
<feFlood flood-opacity="0" result="BackgroundImageFix"/>
<feBlend mode="normal" in="SourceGraphic" in2="BackgroundImageFix" result="shape"/>
<feGaussianBlur stdDeviation="10.5" result="effect1_foregroundBlur_106_10767"/>
</filter>
</defs>
</svg>