<svg width="317" height="227" viewBox="0 0 317 227" fill="none" xmlns="http://www.w3.org/2000/svg">
<path d="M134 1L137 20" stroke="#4E5CFF"/>
<path d="M161 12L150 26" stroke="#4E5CFF"/>
<path d="M108 15L123 27" stroke="#4E5CFF"/>
<path d="M68.9236 138.36C68.9236 58.1526 141.572 53.0073 177.897 60.4607L167.793 107.345L194.495 103.738L170.741 144.851M68.9236 138.36C87.9763 155.672 144.741 149.901 170.741 144.851M68.9236 138.36C71.2333 173.56 142.054 168.895 177.175 162.163M68.9236 138.36C29.4165 148.415 1.04802 163.261 1.00006 175.145M180.784 189.572L189.443 169.376L177.175 162.163M180.784 189.572C48.4113 200.97 0.937927 190.543 1.00006 175.145M180.784 189.572L177.175 211.21M170.741 144.851L164.906 154.95L177.175 162.163M1.00006 175.145V198.948C5.11798 210.248 46.118 228.52 177.175 211.21M177.175 211.21L193.212 193.178M177.175 211.21C258.725 232.848 288.614 225.295 298.417 222.029C307.077 219.144 312.129 205.44 313.572 198.948M262.333 147.736C284.224 156.151 326.562 183.08 313.572 198.948M262.333 147.736C259.927 158.075 243.642 176.372 197.743 166.851M262.333 147.736C262.456 146.765 262.566 145.803 262.663 144.851M313.572 198.948C309.964 204.718 271.859 212.219 193.212 193.178M193.212 193.178L206.042 178.752L197.743 166.851M197.743 166.851L189.443 154.95L196.66 149.179M196.66 149.179L233.466 120.327L208.929 112.393L239.239 75.6069C248.868 82.4141 266.66 105.63 262.663 144.851M196.66 149.179C214.802 153.278 254.267 157.546 262.663 144.851" stroke="#4E5CFF"/>
<path d="M145.5 38.5C145.5 42.8917 141.722 46.5 137 46.5C132.278 46.5 128.5 42.8917 128.5 38.5C128.5 34.1083 132.278 30.5 137 30.5C141.722 30.5 145.5 34.1083 145.5 38.5Z" fill="#4E5CFF" stroke="#4E5CFF"/>
<path d="M137.529 45L140.353 73H134H146" stroke="#4E5CFF"/>
<path d="M74.5 172C74.5 173.146 73.7553 174.259 72.3919 175.112C71.0354 175.959 69.1304 176.5 67 176.5C64.8696 176.5 62.9646 175.959 61.6081 175.112C60.2447 174.259 59.5 173.146 59.5 172C59.5 170.854 60.2447 169.741 61.6081 168.888C62.9646 168.041 64.8696 167.5 67 167.5C69.1304 167.5 71.0354 168.041 72.3919 168.888C73.7553 169.741 74.5 170.854 74.5 172Z" stroke="#4E5CFF"/>
<path d="M162.5 178C162.5 179.146 161.755 180.259 160.392 181.112C159.035 181.959 157.13 182.5 155 182.5C152.87 182.5 150.965 181.959 149.608 181.112C148.245 180.259 147.5 179.146 147.5 178C147.5 176.854 148.245 175.741 149.608 174.888C150.965 174.041 152.87 173.5 155 173.5C157.13 173.5 159.035 174.041 160.392 174.888C161.755 175.741 162.5 176.854 162.5 178Z" stroke="#4E5CFF"/>
<path d="M276.016 184.527C275.722 185.657 274.717 186.561 273.191 187.054C271.671 187.544 269.702 187.597 267.654 187.063C265.607 186.53 263.914 185.525 262.826 184.355C261.733 183.181 261.297 181.901 261.591 180.772C261.885 179.642 262.89 178.738 264.417 178.245C265.937 177.755 267.905 177.703 269.953 178.236C272 178.769 273.693 179.775 274.781 180.944C275.874 182.118 276.31 183.398 276.016 184.527Z" stroke="#4E5CFF"/>
</svg>